# xmcd
#
# Track frame offsets:
#	150
#	3880
#	25555
#	45372
#	61461
#	82049
#	96307
#	114326
#	131622
#	154914
#	170251
#	185212
#	205860
#	231675
#	251242
#	271535
#	292449
#	307982
#	319286
#
# Disc length: 4526 seconds
#
# Revision: 1
# Processed by: cddbd v1.5.2PL0 Copyright (c) Steve Scherf et al.
# Submitted via: audiograbber 1.83.01
#
DISCID=0f11ac13
DTITLE=R. Kelly - Love Letter
DYEAR=2010
DGENRE=R&B
TTITLE0=Love Letter Prelude
TTITLE1=Love Letter
TTITLE2=Number One Hit
TTITLE3=Not Feelin' the Love
TTITLE4=Lost In Your Love
TTITLE5=Just Can't Get Enough
TTITLE6=Taxi Cab
TTITLE7=Radio Message
TTITLE8=When a Woman Loves
TTITLE9=Love is
TTITLE10=Just Like That
TTITLE11=Music Must Be a Lady
TTITLE12=Love Letter Christmas
TTITLE13=How Do I Tell Her?
TTITLE14=Fallin' Hearts
TTITLE15=Butterfly
TTITLE16=Relief
TTITLE17=When a Woman Loves (Remix)
TTITLE18=You Are Not Alone
EXTD=
EXTT0=
EXTT1=
EXTT2=
EXTT3=
EXTT4=
EXTT5=
EXTT6=
EXTT7=
EXTT8=
EXTT9=
EXTT10=
EXTT11=
EXTT12=
EXTT13=
EXTT14=
EXTT15=
EXTT16=
EXTT17=
EXTT18=
PLAYORDER=
